<?xml version="1.0" encoding="UTF-8"?>
<!DOCTYPE svg PUBLIC "-//W3C//DTD SVG 1.1//EN" "http://www.w3.org/Graphics/SVG/1.1/DTD/svg11.dtd">
<!-- Creator: CorelDRAW X7 -->
<svg xmlns="http://www.w3.org/2000/svg" xml:space="preserve" width="349.107mm" height="314.638mm" version="1.1" style="shape-rendering:geometricPrecision; text-rendering:geometricPrecision; image-rendering:optimizeQuality; fill-rule:evenodd; clip-rule:evenodd" viewBox="0 0 34911 31464" xmlns:xlink="http://www.w3.org/1999/xlink">
 <defs>
  <style type="text/css">
   <![CDATA[
    .str0 {stroke:#332C2B;stroke-width:50}
    .str4 {stroke:#332C2B;stroke-width:20}
    .str5 {stroke:#332C2B;stroke-width:20}
    .str3 {stroke:#332C2B;stroke-width:7.62}
    .str1 {stroke:black;stroke-width:20;stroke-linecap:square}
    .str2 {stroke:black;stroke-width:7.62;stroke-linecap:square}
    .fil2 {fill:none}
    .fil4 {fill:#B0000F}
    .fil0 {fill:#C6ECFF}
    .fil3 {fill:#F7D3AA}
    .fil1 {fill:#FEFECF}
   ]]>
  </style>
 </defs>
 <g id="Layer_x0020_1">
  <metadata id="CorelCorpID_0Corel-Layer"/>
  <rect class="fil0 str0" width="34911" height="31464"/>
  <path class="fil1 str1" d="M25935 30020c-304,304 -162,121 -261,417l209 209 313 0c381,-482 93,-678 -52,-678 -193,0 -80,52 -209,52z"/>
  <path class="fil1 str1" d="M29993 29230c271,80 237,114 157,-156 -162,92 -65,-7 -157,156z"/>
  <path class="fil2 str2" d="M31193 9200c-359,-243 -490,-513 -574,-1044 -73,-461 129,-1519 105,-1669 -37,-110 -57,-158 -105,-261 79,-215 22,-294 -52,-521m-834 313c0,-195 264,-409 312,-522l264 152c176,19 91,3 258,57 144,-117 223,-174 365,-313 0,-429 175,-283 261,-730 61,-318 -327,-658 -209,-1148 71,-294 353,-661 574,-887 -18,-235 -10,-179 -156,-365 -66,-230 -78,-182 -261,-365 -51,-153 -40,-96 -52,-261l-105 -417c-17,-71 -143,-171 -104,-417 60,-185 48,-108 52,-313"/>
  <path class="fil2 str2" d="M31506 11912l313 -469c-192,-593 -120,-953 104,-1513 -212,-78 -79,-76 -313,0l-521 -469c50,-106 65,-150 104,-261"/>
  <path class="fil2 str2" d="M23317 2262c176,-439 231,-375 0,-626 62,-193 52,-149 52,-365 86,-34 175,-69 261,-104 74,-192 52,-145 52,-365 73,-183 218,-177 256,-380"/>
  <path class="fil2 str2" d="M22691 2523c42,204 -62,-1 104,209 194,-119 403,-275 522,-470"/>
  <path class="fil2 str2" d="M20917 4296c124,-166 183,-310 365,-365 65,-150 37,-19 52,-208 143,-201 99,-33 105,-313 -152,-266 -38,-92 -52,-209 173,-249 48,-182 312,-52 182,-119 87,-32 209,-209m13 0l-13 0 0 -208 369 -203 414 -6"/>
  <path class="fil1 str1" d="M23494 28436c-74,223 -171,148 -275,138 -376,339 -116,-31 -469,260 242,94 441,120 678,105 14,-32 88,-175 104,-209 202,0 103,-10 209,-52 -115,-188 -91,-196 -247,-242z"/>
  <path class="fil1 str1" d="M26394 29188c-79,163 -72,161 -209,313 165,123 119,80 209,261 156,-90 85,-71 261,-105 2,-5 17,-34 34,-68 88,-104 225,-230 42,-382 -45,-101 -80,-129 -142,-115 -36,8 -235,4 -45,77 -30,22 -13,19 -150,19z"/>
  <path class="fil1 str1" d="M30150 29543l-178 74 -135 -22c77,-157 37,-141 313,-52z"/>
  <path class="fil2 str3" d="M16744 7374c-29,23 -111,72 -156,104"/>
  <path class="fil1 str4" d="M23677 19950c37,-14 46,1 0,0zm-10 4c-4,2 -8,4 -11,6 4,-2 7,-4 11,-6zm8 -4c0,0 1,0 2,0 -4,1 -7,3 -10,4 2,-1 5,-3 8,-4zm7518 -892c-83,-255 -52,-544 -52,-834 266,-1682 153,-881 626,-1565 -242,-745 -71,-228 -313,-574 -368,-525 -303,-1916 52,-2608l-104 -209c-213,-45 -142,-21 -313,-156 51,-244 70,-246 52,-522 -181,-90 -137,-43 -261,-208 -155,213 -77,-11 -104,260 -123,123 -84,88 -157,209 -12,165 -1,108 -52,261 54,167 38,82 60,264 -51,326 -264,98 -60,727 -419,298 -162,-66 -522,-52 -104,-51 -209,-104 -313,-157 -120,91 -93,66 -208,209 -77,-45 -185,-111 -261,-157l-522 209c0,226 26,218 -52,417 -120,33 -172,49 -313,157 -11,170 18,235 -156,365 -111,341 53,231 -209,522 -341,-130 -308,-43 -521,313 -457,-35 -390,-237 -679,52 -401,0 -276,-148 -469,104 -202,55 6,-65 -213,114l-204 -114c-96,63 -161,104 -261,157 -144,-88 -128,-77 -261,-209 -565,701 -481,322 -365,678 17,229 61,215 52,417l-313 0c-676,107 -91,12 -626,0 -192,209 -202,189 -209,470 294,114 434,-43 470,313 -269,181 -550,336 -654,481l-354 230 -35 71 15 0c418,56 444,-206 690,100 29,38 -61,206 -19,257 23,29 64,-23 67,119 2,143 36,217 -86,299 4,52 76,196 -213,276 53,57 -52,153 -148,206 -36,-1 -102,-11 -210,-47l-201 42c0,460 62,306 313,678 129,-97 156,-152 313,-261 61,158 52,52 52,261 128,118 72,79 209,157l417 -365c235,31 170,-45 418,52 -9,208 -74,156 261,156 34,86 69,175 104,261 220,0 174,-22 365,52l0 313c-250,202 -222,161 -522,105 -69,178 -52,98 -52,312 216,84 379,53 626,53l261 -261c120,177 150,159 209,365 392,31 520,331 469,522 -94,355 -139,-124 -52,417l0 51c0,25 36,162 38,317 2,172 -31,367 -38,467 -219,168 -214,93 0,365 66,-115 162,-362 469,-365 157,50 213,45 366,104 -5,206 -38,225 -53,417 407,158 -19,-91 626,209l0 626c148,117 217,144 365,261 -29,260 -12,191 209,417 56,204 -23,87 157,208 120,-180 33,-92 208,-208 327,511 330,39 730,0 62,107 106,203 157,313 637,-121 214,-426 730,-574 -5,-234 -93,-435 -52,-678 36,-105 68,-209 104,-313 65,-385 -105,-2084 -52,-2400 142,-841 742,-516 626,-1251 -132,-407 -52,-1199 -52,-1670z"/>
  <path class="fil3 str4" d="M11789 8261c120,-181 33,-93 208,-209 76,46 185,112 261,157 182,-119 86,-32 209,-209 433,-34 354,-272 626,-417l886 -365c132,-107 225,-179 366,-261 66,166 47,50 52,261 440,229 102,-107 521,313 180,-15 94,1 261,-53l783 -52c336,-239 286,-38 626,52 45,-32 127,-81 156,-104 167,-35 311,-101 470,-156l313 0c156,-82 102,-63 260,-105 83,-213 213,-180 470,-417 124,-10 197,-30 313,-52 112,-49 14,-52 208,-52 325,-508 506,-113 835,-209 99,-63 114,-80 209,-157 26,-268 96,-338 365,-365l208 -208c-9,-124 -30,-197 -52,-313 379,-379 208,-207 522,-731 128,47 89,30 209,53 64,-151 37,-19 52,-209 -99,-63 -114,-80 -209,-157 124,-166 183,-310 365,-365 65,-150 37,-19 52,-208 143,-201 99,-33 105,-313 -152,-266 -38,-92 -52,-209 173,-249 48,-182 312,-52 182,-119 87,-32 209,-209l0 -208 369 -203 414 -6c42,204 -62,-1 104,209 194,-119 403,-275 522,-470 176,-439 231,-375 0,-626 62,-193 52,-149 52,-365 86,-34 175,-69 261,-104 74,-192 52,-145 52,-365 73,-183 218,-177 256,-380 361,602 141,206 422,797 262,-26 154,-2 365,-209 219,-5 251,-47 469,-52 127,86 139,96 261,209 -52,162 -52,255 -104,417 225,88 452,73 678,0 85,127 96,138 209,261 225,0 217,-26 417,52 -54,202 -74,199 -209,365 133,196 104,185 313,313 268,-322 26,-287 522,104 -33,156 -47,171 -104,313 158,126 76,81 260,157 77,-95 94,-110 157,-209 131,135 119,113 208,261 -158,77 -110,47 -260,157 466,377 219,219 365,469 171,190 99,51 156,261 -154,253 -364,346 -261,678 121,-91 93,-65 209,-209 36,19 175,86 209,105 234,-76 101,-78 313,0 -117,150 -81,100 -261,208 48,256 16,234 209,365 147,-98 133,-112 260,-208 36,86 71,174 105,261 179,73 197,38 313,208 -171,234 -212,72 -105,365 189,-18 149,-20 313,-104 136,83 233,171 365,261 0,-195 265,-409 313,-522l264 152c176,19 91,3 258,57 144,-117 223,-174 365,-313 0,-429 175,-283 261,-730 61,-318 -327,-658 -209,-1148 71,-294 353,-661 574,-887 -18,-235 -10,-179 -156,-365 -66,-230 -78,-182 -261,-365 -51,-153 -40,-96 -52,-261l-105 -417c-17,-71 -143,-171 -104,-417 60,-185 48,-108 52,-313 269,-202 130,-215 162,-489l-31094 0 0 5131 0 7569 805 268 238 318 334 -96 604 541 635 174c118,175 156,434 201,563 30,161 39,172 104,313 205,-4 129,8 313,-52l264 151c0,45 35,166 49,214 347,149 59,-98 522,365 0,336 -33,260 104,522 -140,237 -130,98 -157,365 303,111 711,-243 1044,-313l313 313 1095 -104c99,-64 114,-81 209,-157 223,219 397,362 730,417 140,24 559,58 678,0 143,-154 212,-260 365,-417 30,-155 49,-274 105,-417 359,-8 321,-44 626,261 464,-10 331,-118 625,-313 111,164 164,215 313,365 172,-83 305,-173 470,-261 87,-145 76,-129 209,-261 34,-176 14,-105 104,-261 -179,-69 -99,-52 -313,-52 -182,-185 -145,-90 -209,-313 -12,-23 -262,-310 -313,-521l0 -470c-59,-65 -94,-96 -116,-115 -19,-226 -40,-876 -40,-876 145,-210 174,-189 365,-365 180,7 72,151 209,-157l-157 -938c-132,-186 -113,-190 -156,-418 24,-5 184,-48 208,-52 70,-216 52,-232 52,-469 -68,-226 -68,-88 0,-313l0 -366c192,-212 123,-117 209,-365 139,-219 430,-162 470,-678 397,-313 263,36 678,-469z"/>
  <path class="fil3 str5" d="M0 15668c124,203 162,241 365,365 75,-182 30,-104 157,-261l417 -208c237,-50 279,-107 469,-261 405,-193 228,48 626,-418 193,-224 506,-358 783,-417 -67,-187 -76,-385 -201,-563l-635 -174 -604 -541 -334 96 -238 -318 -805 -268 0 2968z"/>
  <path class="fil1 str4" d="M13197 16085c-171,217 -164,304 -365,522 -6,286 40,136 -104,261 -82,420 -53,418 -53,886 267,125 275,176 522,0 287,94 435,19 469,365 151,207 84,-6 105,261 176,108 212,160 365,313 227,0 211,-14 417,52 318,-226 142,-62 626,-52 78,-96 131,-164 209,-261 216,0 172,11 365,-52 161,-214 -1,-130 261,-156l314 -207c268,60 207,68 207,-263 183,-134 102,-83 313,-156 140,-190 113,-189 366,-209 248,-149 324,-286 573,-208 -99,162 -117,169 -260,313 187,33 86,74 313,-105 258,-5 215,36 365,-156 5,-81 17,-53 0,-209 98,-184 109,-201 260,-365 88,-283 186,-169 470,-261 287,99 328,86 574,313 0,202 10,102 52,209 281,0 252,52 626,-313 0,-493 108,-411 111,-519 -58,-156 -46,-99 -59,-264 232,-148 268,-229 417,-521 168,-345 366,-551 522,-939 51,-266 -153,7 52,-522 -649,-357 -427,-145 -626,-208 -236,-160 -413,-362 -626,-574 -219,-76 -328,-71 -521,-209l0 -626c-19,-33 -86,-172 -105,-209 -24,-99 9,-372 -52,-469 -216,-162 -122,-124 -261,-365l-261 0c-155,33 -170,47 -313,104 -369,234 112,192 -625,52 -522,522 -291,195 -731,365 -3,24 -47,185 -52,209 -299,0 -394,61 -626,-104 -263,-26 -90,44 -318,-147 -208,-144 -505,-201 -725,-114 134,415 -17,171 -49,581 -478,219 -178,182 -681,462 -77,397 -116,165 -522,678 161,145 204,143 365,261 -45,77 -111,185 -156,261 147,160 202,247 313,417 -63,194 -53,150 -53,365 -83,139 -102,179 -208,313 -18,231 12,111 -105,313l-573 0c-465,74 -85,-46 -522,887z"/>
  <path class="fil1 str4" d="M12832 16607c201,-218 194,-305 365,-522 437,-933 57,-813 522,-887l573 0c117,-202 87,-82 105,-313 106,-134 125,-174 208,-313 0,-215 -10,-171 53,-365 -111,-170 -166,-257 -313,-417 45,-76 111,-184 156,-261 -161,-118 -204,-116 -365,-261 406,-513 445,-281 522,-678 503,-280 203,-243 681,-462 32,-410 183,-166 49,-581 220,-87 517,-30 725,114 228,191 55,121 318,147 232,165 327,104 626,104 5,-24 49,-185 52,-209 440,-170 209,157 731,-365 737,140 256,182 625,-52 143,-57 158,-71 313,-104l53 -417c404,-404 189,-323 260,-522 74,-94 93,-113 157,-209 325,264 629,442 1095,261 55,-140 50,-173 105,-313 -127,-219 -99,-103 -105,-365 -93,-74 -113,-93 -208,-156 -254,83 -69,59 -261,0 -246,60 -61,87 -313,-53 -202,0 -103,-10 -209,-52 167,-880 85,-150 0,-730 5,-230 35,-270 105,-470 -24,-112 -13,-89 -53,-208 66,-167 48,-50 53,-261 -103,-343 -870,-302 -887,-1043 -116,22 -189,42 -313,52 -257,237 -387,204 -470,417 -158,42 -104,23 -260,105l-313 0c-159,55 -303,121 -470,156 -29,23 -111,72 -156,104 -340,-90 -290,-291 -626,-52l-783 52c-167,54 -81,38 -261,53 -419,-420 -81,-84 -521,-313 -5,-211 14,-95 -52,-261 -141,82 -234,154 -366,261l-886 365c-272,145 -193,383 -626,417 -123,177 -27,90 -209,209 -76,-45 -185,-111 -261,-157 -175,116 -88,28 -208,209 -415,505 -281,156 -678,469 -40,516 -331,459 -470,678 -86,248 -17,153 -209,365l0 366c-68,225 -68,87 0,313 0,237 18,253 -52,469 -24,4 -184,47 -208,52 43,228 24,232 156,418l157 938c-137,308 -29,164 -209,157 -191,176 -220,155 -365,365 0,0 21,650 40,876 22,19 57,50 116,115l0 470c51,211 301,498 313,521 64,223 27,128 209,313 214,0 134,-17 313,52 -90,156 -70,85 -104,261 -133,132 -122,116 -209,261 238,151 121,52 469,52 279,45 74,139 418,-52 338,461 -37,440 417,730 -39,119 -29,97 -52,209 256,182 247,112 521,-52 242,139 203,44 366,261 144,-125 98,25 104,-261z"/>
  <path class="fil4 str4" d="M20135 9461c95,63 115,82 208,156 6,262 -22,146 105,365 -55,140 -50,173 -105,313 -466,181 -770,3 -1095,-261 -64,96 -83,115 -157,209 -71,199 144,118 -260,522l-53 417 261 0c139,241 45,203 261,365 61,97 28,370 52,469 19,37 86,176 105,209l0 626c193,138 302,133 521,209 213,212 390,414 626,574 199,63 -23,-149 626,208 293,-317 191,-220 206,-631 599,-344 38,-42 524,-569 -54,-166 -38,-81 -52,-260 140,-55 173,-50 313,-105l0 -417c-135,-106 -174,-126 -313,-209 -14,-179 2,-94 -52,-260 1,-54 155,-210 -104,-574l368 -203c-49,-134 -32,-95 -55,-215 387,-188 248,-90 469,-365l365 365c83,-138 103,-178 209,-313 -250,-487 88,-120 -313,-521l0 -261c-225,-89 -386,-37 -574,-313 11,-18 35,-68 58,-116 -38,-182 -54,-522 -58,-719l-574 -208c0,-210 -9,-103 53,-261 209,-81 207,-23 417,-104 -14,-176 -39,-190 -52,-365 213,-156 -11,-78 260,-105 278,-351 162,-268 261,-574 -109,-144 -141,-159 -313,-260l-261 260c-191,41 -346,128 -521,209 -134,326 12,328 -261,104 -164,120 -29,67 -209,105 -15,-34 -90,-177 -104,-209 -127,54 -245,138 -365,209 -270,-184 -153,-283 -52,-574l-313 -522c-269,27 -339,97 -365,365 -95,77 -110,94 -209,157 -329,96 -510,-299 -835,209 -194,0 -96,3 -208,52 17,741 784,700 887,1043 -5,211 13,94 -53,261 40,119 29,96 53,208 -70,200 -100,240 -105,470 85,580 167,-150 0,730 106,42 7,52 209,52 252,140 67,113 313,53 192,59 7,83 261,0z"/>
  <path class="fil1 str4" d="M22586 6539c218,71 147,71 365,0l366 0c154,-142 260,-212 417,-365 257,0 510,34 730,-52l0 -313c167,-66 50,-47 261,-52 201,-103 276,-151 522,-157 101,263 2,312 104,574l469 0c71,-181 34,-184 105,-365l417 0c69,179 52,99 52,313 167,66 50,48 261,52 309,179 840,334 1095,522 0,210 -9,103 52,261 327,-26 79,-52 522,-52l152 -264c500,6 287,-102 787,-102 103,162 27,60 157,157 153,-29 225,-47 365,-104l-53 -574c-132,-90 -229,-178 -365,-261 -164,84 -124,86 -313,104 -107,-293 -66,-131 105,-365 -116,-170 -134,-135 -313,-208 -34,-87 -69,-175 -105,-261 -127,96 -113,110 -260,208 -193,-131 -161,-109 -209,-365 180,-108 144,-58 261,-208 -212,-78 -79,-76 -313,0 -34,-19 -173,-86 -209,-105 -116,144 -88,118 -209,209 -103,-332 107,-425 261,-678 -57,-210 15,-71 -156,-261 -146,-250 101,-92 -365,-469 150,-110 102,-80 260,-157 -89,-148 -77,-126 -208,-261 -63,99 -80,114 -157,209 -184,-76 -102,-31 -260,-157 57,-142 71,-157 104,-313 -496,-391 -254,-426 -522,-104 -209,-128 -180,-117 -313,-313 135,-166 155,-163 209,-365 -200,-78 -192,-52 -417,-52 -113,-123 -124,-134 -209,-261 -226,73 -453,88 -678,0 52,-162 52,-255 104,-417 -122,-113 -134,-123 -261,-209 -218,5 -250,47 -469,52 -211,207 -103,183 -365,209 -281,-591 -61,-195 -422,-797 -38,203 -183,197 -256,380 0,220 22,173 -52,365 -86,35 -175,70 -261,104 0,216 10,172 -52,365 231,251 176,187 0,626 -119,195 -328,351 -522,470 -166,-210 -62,-5 -104,-209l-414 6 -369 203 0 208c-122,177 -27,90 -209,209 -264,-130 -139,-197 -312,52 14,117 -100,-57 52,209 -6,280 38,112 -105,313 -15,189 13,58 -52,208 -182,55 -241,199 -365,365 95,77 110,94 209,157 -15,190 12,58 -52,209 -120,-23 -81,-6 -209,-53 -314,524 -143,352 -522,731 22,116 43,189 52,313l-208 208 313 522c-101,291 -218,390 52,574 120,-71 238,-155 365,-209 14,32 89,175 104,209 180,-38 45,15 209,-105 273,224 127,222 261,-104 175,-81 330,-168 521,-209l261 -260c172,101 204,116 313,260z"/>
  <path class="fil1 str4" d="M22951 6539c-218,71 -147,71 -365,0 -99,306 17,223 -261,574 -271,27 -47,-51 -260,105 13,175 38,189 52,365 -210,81 -208,23 -417,104 -62,158 -53,51 -53,261l574 208c4,197 20,537 58,719 -23,48 -47,98 -58,116 188,276 349,224 574,313l0 261c401,401 63,34 313,521 -106,135 -126,175 -209,313l-365 -365c-221,275 -82,177 -469,365 23,120 6,81 55,215l-368 203c259,364 105,520 104,574 54,166 38,81 52,260 139,83 178,103 313,209l0 417c221,71 157,17 157,313 141,66 152,74 313,105 142,-58 157,-72 313,-105 160,-214 -2,-130 258,-161 268,-89 418,-312 472,-569 33,-16 177,-91 208,-104l470 -522c349,-419 757,-279 991,-365 173,-63 148,-322 574,-157 94,-76 110,-93 208,-156 271,198 278,57 470,313 214,193 301,156 574,156 76,95 93,110 156,209 77,-158 47,-111 157,-261 193,63 149,52 365,52 127,-219 98,-103 104,-365 128,-118 72,-78 209,-156 77,212 76,79 0,313 271,99 362,-31 521,-261 264,178 267,110 209,365 235,235 468,506 730,157 135,66 205,86 313,104 -23,119 -6,80 -52,209 154,109 228,95 365,104 117,299 -30,161 105,469 -265,93 -273,164 -313,522 210,211 242,338 521,365 73,-121 34,-86 157,-209 27,-271 -51,-47 104,-260 124,165 80,118 261,208 18,276 -1,278 -52,522 171,135 100,111 313,156 184,-37 -11,-52 261,0 152,-193 192,-320 312,-521 -304,-305 -459,-370 -469,-835l313 -469c-192,-593 -120,-953 104,-1513 -212,-78 -79,-76 -313,0l-521 -469c50,-106 65,-150 104,-261 -359,-243 -490,-513 -574,-1044 -73,-461 129,-1519 105,-1669 -37,-110 -57,-158 -105,-261 79,-215 22,-294 -52,-521 -167,-54 -82,-38 -258,-57l-264 -152c-48,113 -313,327 -313,522l53 574c-140,57 -212,75 -365,104 -130,-97 -54,5 -157,-157 -500,0 -287,108 -787,102l-152 264c-443,0 -195,26 -522,52 -61,-158 -52,-51 -52,-261 -255,-188 -786,-343 -1095,-522 -211,-4 -94,14 -261,-52 0,-214 17,-134 -52,-313l-417 0c-71,181 -34,184 -105,365l-469 0c-102,-262 -3,-311 -104,-574 -246,6 -321,54 -522,157 -211,5 -94,-14 -261,52l0 313c-220,86 -473,52 -730,52 -157,153 -263,223 -417,365l-366 0z"/>
  <path class="fil1 str4" d="M23734 11860c-54,257 -204,480 -472,569 -260,31 -98,-53 -258,161 -156,33 -171,47 -313,105 -161,-31 -172,-39 -313,-105 0,-296 64,-242 -157,-313 -140,55 -173,50 -313,105 14,179 -2,94 52,260 -486,527 75,225 -524,569 -15,411 87,314 -206,631 -205,529 -1,256 -52,522 -156,388 -354,594 -522,939 -149,292 -185,373 -417,521 13,165 1,108 59,264 -3,108 -111,26 -111,519 -374,365 -345,313 -626,313 -42,-107 -52,-7 -52,-209 -246,-227 -287,-214 -574,-313 -284,92 -382,-22 -470,261 -151,164 -162,181 -260,365 17,156 5,128 0,209 -150,192 -107,151 -365,156 -227,179 -126,138 -313,105 143,-144 161,-151 260,-313 -249,-78 -325,59 -573,208 -253,20 -226,19 -366,209 -211,73 -130,22 -313,156 0,331 61,323 -207,263l-314 207c-262,26 -100,-58 -261,156 -193,63 -149,52 -365,52 -78,97 -131,165 -209,261 -484,-10 -308,-174 -626,52 -206,-66 -190,-52 -417,-52 -153,-153 -189,-205 -365,-313 -234,143 -473,400 -626,626 -166,70 -190,110 -365,157 -144,116 -223,173 -365,313 -143,57 -158,71 -313,104 -123,99 -192,149 -313,261 -287,0 -200,-51 -418,104 17,211 67,272 105,470 279,-6 314,-85 573,-105l261 -261c280,7 113,-38 313,105 -40,190 -87,244 -156,417 163,164 236,243 417,365 77,159 47,111 157,261l260 0c160,277 111,447 574,730 123,-177 27,-89 209,-208 64,138 107,236 208,365 129,-102 228,-145 366,-209 -37,-662 -57,74 365,-626 -296,-245 -418,-328 -574,-626 207,-147 84,-104 365,-104 156,-123 250,-172 417,-261 238,140 98,130 366,157 117,-23 213,-242 625,52 123,-44 98,-29 209,-52 -57,-198 -50,-134 -156,-313 66,-112 135,-205 208,-313 595,112 490,328 783,521 260,105 342,59 417,313 78,97 131,164 209,261 189,-15 58,13 208,-52 148,148 228,244 301,272 74,28 282,-11 325,-11l314 -207c451,-156 594,63 990,-524 74,-173 164,-306 261,-469 123,-113 134,-123 261,-209 21,-170 18,-224 60,-347 111,124 37,120 253,87 -131,219 -102,108 -100,322 237,-132 455,-211 726,-114 160,-232 47,-182 313,-208 76,-95 93,-110 156,-209 263,105 337,75 365,365 248,118 253,115 366,313 36,19 175,85 208,104 147,-27 203,-48 365,-52l201 -42c20,-103 -240,-37 -220,-139 -214,0 41,-63 -137,-132 207,-147 -245,-325 36,-325 -15,-44 141,21 77,-147 -55,-143 -2,-304 -9,-310 190,-74 97,5 157,-157l35 -71 354 -230c104,-145 385,-300 654,-481 -36,-356 -176,-199 -470,-313 7,-281 17,-261 209,-470 535,12 -50,107 626,0l313 0c9,-202 -35,-188 -52,-417 -116,-356 -200,23 365,-678 133,132 117,121 261,209 100,-53 165,-94 261,-157l204 114c219,-179 11,-59 213,-114 193,-252 68,-104 469,-104 289,-289 222,-87 679,-52 213,-356 180,-443 521,-313 262,-291 98,-181 209,-522 174,-130 145,-195 156,-365 141,-108 193,-124 313,-157 78,-199 52,-191 52,-417l522 -209c76,46 184,112 261,157 115,-143 88,-118 208,-209 104,53 209,106 313,157 360,-14 103,350 522,52 -204,-629 9,-401 60,-727 -22,-182 -6,-97 -60,-264 51,-153 40,-96 52,-261 -279,-27 -311,-154 -521,-365 40,-358 48,-429 313,-522 -135,-308 12,-170 -105,-469 -137,-9 -211,5 -365,-104 46,-129 29,-90 52,-209 -108,-18 -178,-38 -313,-104 -262,349 -495,78 -730,-157 58,-255 55,-187 -209,-365 -159,230 -250,360 -521,261 76,-234 77,-101 0,-313 -137,78 -81,38 -209,156 -6,262 23,146 -104,365 -216,0 -172,11 -365,-52 -110,150 -80,103 -157,261 -63,-99 -80,-114 -156,-209 -273,0 -360,37 -574,-156 -192,-256 -199,-115 -470,-313 -98,63 -114,80 -208,156 -426,-165 -401,94 -574,157 -234,86 -642,-54 -991,365l-470 522c-31,13 -175,88 -208,104z"/>
  <path class="fil1 str4" d="M24074 18793c-246,-306 -272,-44 -690,-100l-15 0c-60,162 33,83 -157,157 7,6 -46,167 9,310 64,168 -92,103 -77,147 -281,0 171,178 -36,325 178,69 -77,132 137,132 -20,102 240,36 220,139 108,36 174,46 210,47 96,-53 201,-149 148,-206 289,-80 217,-224 213,-276 122,-82 88,-156 86,-299 -3,-142 -44,-90 -67,-119 -42,-51 48,-219 19,-257z"/>
  <path class="fil1 str4" d="M17605 22531c-25,-30 -451,-559 -496,-604 -164,-110 -215,-163 -365,-313l0 -208c-171,-168 -298,-250 -469,-418 74,-213 151,-329 156,-573 -111,23 -86,8 -209,52 -412,-294 -508,-75 -625,-52 -268,-27 -128,-17 -366,-157 -167,89 -261,138 -417,261 -281,0 -158,-43 -365,104 156,298 278,381 574,626 -422,700 -402,-36 -365,626 -138,64 -237,107 -366,209 -101,-129 -144,-227 -208,-365 -182,119 -86,31 -209,208 -463,-283 -414,-453 -574,-730l-260 0c-110,-150 -80,-102 -157,-261 -181,-122 -254,-201 -417,-365 69,-173 116,-227 156,-417 -200,-143 -33,-98 -313,-105l-261 261c-259,20 -294,99 -573,105 -184,250 -259,618 -313,939 -122,720 47,655 -522,1356l887 991c0,610 183,458 261,626 15,189 -13,58 52,208 146,92 160,80 313,209 263,26 90,-44 313,157 16,33 90,176 104,208 128,118 72,79 209,157 16,33 90,176 104,208 194,78 193,73 365,209 -19,36 -85,175 -104,209 305,118 349,11 631,258l151 263c64,75 312,179 522,522 -88,144 -76,128 -209,261l0 469c-140,55 -173,50 -313,104 246,581 310,454 783,835 -134,261 -174,236 -105,626 61,338 261,272 261,991l991 -104c-157,-485 17,-244 -417,-678 6,-291 58,-275 157,-522 -101,-154 -137,-195 -209,-365 -172,-190 -100,-51 -157,-261 -59,-115 -445,-478 -573,-782 56,-78 99,-132 156,-209 -138,-657 -706,-987 -1095,-1461l-261 -417c-13,-165 -2,-107 -52,-261 -143,-143 -162,-151 -261,-313 341,-228 293,-445 887,-573 255,-55 323,76 417,104 328,99 1226,-36 1353,683 177,101 333,181 473,360 414,531 61,243 626,417 285,89 469,313 469,313 119,40 97,29 209,53 191,84 271,206 417,365 176,-14 190,-39 365,-52l0 104c-24,235 35,192 261,417 119,-23 80,-6 209,-52 98,133 89,120 156,261 165,-13 108,-2 261,-52 254,146 90,121 313,52 169,98 509,182 156,156 150,281 192,392 470,209l208 209c37,47 79,114 146,150 69,37 164,43 229,81l12 6c98,41 266,-89 283,-130 17,-43 -40,-147 -200,-264 -341,-374 -123,-615 -104,-730 -7,-295 10,-234 -209,-313 -134,-137 -162,-166 -261,-313l-678 -626c-315,-259 -634,-166 -887,-469 -146,0 -538,31 -678,-261 -26,-263 45,-90 -156,-313l0 -418c32,-13 175,-88 208,-104 14,-178 163,-471 105,-626 -189,-214 -169,-128 -53,-365 -280,-281 -272,-326 -573,-469 14,-75 19,-105 26,-127z"/>
  <path class="fil1 str4" d="M19400 23106c36,46 -247,2 -674,386 -5,264 -109,529 -208,835 155,193 97,74 104,261 49,133 269,117 104,626 253,303 572,210 887,469l678 626c99,147 127,176 261,313 219,79 202,18 209,313 -19,115 -237,356 104,730 160,117 217,221 200,264 -17,41 -185,171 -283,130l297 314 533 63 458 -42c63,-98 75,-113 151,-207 210,0 103,9 261,-52 -134,-197 -286,-203 -493,-134 -43,-79 -337,70 -386,70 -44,0 155,-149 149,-197 -166,-206 -232,-216 104,-313 29,-291 79,-259 365,-313 102,101 53,65 157,104 77,-261 94,-156 -209,-261 -86,-184 -142,-330 -209,-521 197,-118 234,-91 365,-261 -176,-39 0,-53 -208,0 -271,-660 -37,-122 -313,-574 52,-100 94,-165 156,-261 210,-16 181,-30 365,-104 275,164 266,235 522,52 -38,-179 15,-45 -104,-208 161,-104 60,-28 156,-157 -28,-274 -64,-29 0,-313 -95,-405 -31,7 157,-209l-97 -212c-25,-229 24,-118 -58,-166l-106 -116 0 -79c-267,-21 -80,51 -209,-105 90,-148 77,-126 209,-260 0,-187 6,-89 -52,-209l-31 61c-181,129 -87,66 -247,48 -158,-150 -133,-188 -244,-474 127,0 202,-31 258,-77 47,-38 82,-87 126,-137 -54,-97 -22,-64 -125,-122 57,-54 -28,-84 -46,-134 -24,-68 -14,-159 -161,-261 -171,-142 -346,-350 -678,-417 -221,-17 -430,-76 -626,-156 104,-246 39,-160 261,-313 107,-180 104,-196 261,-365 211,206 103,182 365,208 118,-322 -147,-391 -156,-834 373,-374 244,-155 417,-261 331,-204 -162,-122 574,-261 -113,-198 -118,-195 -366,-313 -28,-290 -102,-260 -365,-365 -63,99 -80,114 -156,209 -266,26 -153,-24 -313,208 -271,-97 -489,-18 -726,114 -2,-214 -31,-103 100,-322 -216,33 -142,37 -253,-87 -42,123 -39,177 -60,347 -127,86 -138,96 -261,209 -97,163 -187,296 -261,469 262,6 146,-22 365,105l0 261c-527,486 -250,657 -424,907 18,63 7,89 7,240 106,42 7,52 209,52 87,180 135,206 156,418 86,35 175,70 261,104 -111,167 -141,149 -261,313 -227,0 -211,15 -417,-52 -119,163 5,40 -157,156 -119,-23 -80,-6 -208,-52 -106,8 -198,247 -161,292z"/>
  <path class="fil1 str4" d="M18726 23492c427,-384 710,-340 674,-386 -37,-45 55,-284 161,-292 128,46 89,29 208,52 162,-116 38,7 157,-156 206,67 190,52 417,52 120,-164 150,-146 261,-313 -86,-34 -175,-69 -261,-104 -21,-212 -69,-238 -156,-418 -202,0 -103,-10 -209,-52 0,-151 11,-177 -7,-240 174,-250 -103,-421 424,-907l0 -261c-219,-127 -103,-99 -365,-105 -396,587 -539,368 -990,524l-314 207c-43,0 -251,39 -325,11 -73,-28 -153,-124 -301,-272 -150,65 -19,37 -208,52 -78,-97 -131,-164 -209,-261 -75,-254 -157,-208 -417,-313 -293,-193 -188,-409 -783,-521 -73,108 -142,201 -208,313 106,179 99,115 156,313 -5,244 -82,360 -156,573 171,168 298,250 469,418l0 208c150,150 201,203 365,313 45,45 471,574 496,604 -7,22 -12,52 -26,127 301,143 293,188 573,469 -116,237 -136,151 53,365 58,155 -91,448 -105,626 -33,16 -176,91 -208,104l0 418c201,223 130,50 156,313 140,292 532,261 678,261 165,-509 -55,-493 -104,-626 -7,-187 51,-68 -104,-261 99,-306 203,-571 208,-835z"/>
  <path class="fil1 str4" d="M4016 16346c41,119 -26,353 183,366l422 27 105 210 302 158 527 66 639 -39 71 197 447 199 -39 208 198 303 39 342 -119 131 -51 198 657 79 289 316 5 247 506 530 1391 498 296 541 290 1132 467 655c569,-701 400,-636 522,-1356 54,-321 129,-689 313,-939 -38,-198 -88,-259 -105,-470 218,-155 131,-104 418,-104 121,-112 190,-162 313,-261 155,-33 170,-47 313,-104 142,-140 221,-197 365,-313 175,-47 199,-87 365,-157 153,-226 392,-483 626,-626 -21,-267 46,-54 -105,-261 -34,-346 -182,-271 -469,-365 -247,176 -255,125 -522,0 0,-468 -29,-466 53,-886 -163,-217 -124,-122 -366,-261 -274,164 -265,234 -521,52 23,-112 13,-90 52,-209 -454,-290 -79,-269 -417,-730 -344,191 -139,97 -418,52 -348,0 -231,99 -469,-52 -165,88 -298,178 -470,261 -149,-150 -202,-201 -313,-365 -294,195 -161,303 -625,313 -305,-305 -267,-269 -626,-261 -56,143 -75,262 -105,417 -153,157 -222,263 -365,417 -119,58 -538,24 -678,0 -333,-55 -507,-198 -730,-417 -95,76 -110,93 -209,157l-1095 104 -313 -313c-333,70 -741,424 -1044,313z"/>
  <path class="fil1 str4" d="M5027 17118l-301 -169 -106 -211 -434 -22c-172,-9 -130,-247 -170,-370 27,-267 17,-128 157,-365 -137,-262 -104,-186 -104,-522 -463,-463 -175,-216 -522,-365 -14,-48 -49,-169 -49,-214l-264 -151c-184,60 -108,48 -313,52 -65,-141 -74,-152 -104,-313 -277,59 -590,193 -783,417 -398,466 -221,225 -626,418 -190,154 -232,211 -469,261l-417 208c-127,157 -82,79 -157,261 85,219 73,139 0,365 182,134 186,139 417,157 230,137 195,47 261,260 177,123 90,27 209,209 -96,361 -215,114 52,417 449,-274 326,-804 1148,0 0,290 55,246 -105,470 77,158 47,111 157,261 309,-31 137,-37 365,-209 175,116 88,28 209,209 519,98 564,267 678,469 285,506 562,383 834,574 359,251 391,486 470,678 -290,623 -226,221 -522,626 64,95 82,115 157,209l365 0c205,122 357,174 574,260 72,48 229,502 457,882 210,350 493,627 534,710l0 182c178,123 170,127 260,313 248,104 316,163 522,365 34,176 14,105 104,261 175,101 538,272 731,313 405,193 624,624 626,626 0,0 1027,486 1304,939 76,234 78,238 52,469 -32,14 -175,89 -209,104 209,316 676,371 991,574 205,189 405,325 626,470 27,275 104,260 313,469 155,203 192,384 678,783 336,275 1027,721 1096,1147 0,210 9,103 -53,261 -86,34 -174,69 -260,104 318,480 566,219 834,261 676,107 91,12 626,0 0,-719 -200,-653 -261,-991 -69,-390 -29,-365 105,-626 -473,-381 -537,-254 -783,-835 140,-54 173,-49 313,-104l0 -469c133,-133 121,-117 209,-261 -210,-343 -458,-447 -522,-522l-151 -263c-282,-247 -326,-140 -631,-258 19,-34 85,-173 104,-209 -172,-136 -171,-131 -365,-209 -14,-32 -88,-175 -104,-208 -137,-78 -81,-39 -209,-157 -14,-32 -88,-175 -104,-208 -223,-201 -50,-131 -313,-157 -153,-129 -167,-117 -313,-209 -65,-150 -37,-19 -52,-208 -78,-168 -261,-16 -261,-626l-887 -991 -475 -687 -282 -1100 -296 -541 -1391 -498 -506 -530 -5 -247 -289 -316 -657 -79 51 -197 119 -132 -39 -342 -198 -303 40 -208 -448 -199 -71 -196 -639 38 -528 -55z"/>
  <path class="fil1 str4" d="M23473 22292c-15,52 192,109 258,217 74,122 58,183 4,305l111 6c24,-4 33,70 36,108 2,20 22,71 24,99 131,34 111,7 142,67l-15 153c-21,20 -4,2 -57,96l-242 45c0,85 -5,121 0,138l167 502c149,155 73,146 75,176 2,23 49,69 279,227l0 209c141,178 239,294 261,521 201,223 131,51 157,313l313 313c376,459 256,224 521,365 158,154 216,185 365,209l209 209c200,42 195,54 365,156 114,229 -2,78 157,209 148,-123 95,-117 208,-313 122,6 168,9 313,52 -36,105 -68,209 -104,313 693,693 436,519 365,939 -52,310 97,715 365,887 231,148 574,52 574,52 270,-3 260,156 678,156 206,229 159,273 261,522 -77,256 -65,56 0,261l782 -887 0 -209c64,-95 83,-114 157,-208 90,-339 121,-60 52,-365 48,-149 75,-312 104,-470l-11 -163c95,-64 130,-137 -41,-463 303,-328 200,-399 261,-782 87,-551 271,-580 52,-887 -516,148 -93,453 -730,574 -51,-110 -95,-206 -157,-313 -400,39 -403,511 -730,0 -175,116 -88,28 -208,208 -180,-121 -101,-4 -157,-208 -221,-226 -238,-157 -209,-417 -148,-117 -217,-144 -365,-261l0 -626c-645,-300 -219,-51 -626,-209 15,-192 48,-211 53,-417 -153,-59 -209,-54 -366,-104 -307,3 -403,250 -469,365 -214,-272 -219,-197 0,-365 7,-100 40,-295 38,-467 -2,-155 -38,-292 -38,-317l0 -51c-87,-541 -42,-62 52,-417 51,-191 -77,-491 -469,-522 -59,-206 -89,-188 -209,-365l-261 261c-247,0 -410,31 -626,-53 0,-214 -17,-134 52,-312 300,56 272,97 522,-105l0 -313c-191,-74 -145,-52 -365,-52 -35,-86 -70,-175 -104,-261 -335,0 -270,52 -261,-156 -248,-97 -183,-21 -418,-52l-417 365c-137,-78 -81,-39 -209,-157 0,-209 9,-103 -52,-261 -157,109 -184,164 -313,261 -251,-372 -313,-218 -313,-678 -162,4 -218,25 -365,52 -33,-19 -172,-85 -208,-104 -736,139 -243,57 -574,261 -173,106 -44,-113 -417,261 9,443 274,512 156,834 -262,-26 -154,-2 -365,-208 -157,169 -154,185 -261,365 -222,153 -157,67 -261,313 196,80 405,139 626,156 332,67 507,275 678,417 147,102 137,193 161,261 18,50 103,80 46,134 103,58 71,25 125,122 97,-65 -27,-350 108,-383l30 -29c138,-220 292,-59 459,122 -1,-129 74,-285 271,-227z"/>
  <path class="fil1 str4" d="M23731 22509c-66,-108 -273,-165 -258,-217 -197,-58 -272,98 -271,227 -167,-181 -321,-342 -459,-122l-30 29c-135,33 -11,318 -108,383 -44,50 -79,99 -126,137 -56,46 -131,77 -258,77 111,286 86,324 244,474 160,18 66,81 247,-48l31 -61c58,120 52,22 52,209 -132,134 -119,112 -209,260 129,156 -58,84 209,105 0,-185 -6,-91 50,-206l22 -60c148,-91 43,-7 125,-80 0,-89 32,-60 42,-148 12,-97 253,-174 354,-66l172 109 43 93 96 462 277 138c-2,-30 74,-21 -75,-176l-167 -502c-5,-17 0,-53 0,-138l242 -45c53,-94 36,-76 57,-96l15 -153c-31,-60 -11,-33 -142,-67 -2,-28 -22,-79 -24,-99 -3,-38 -12,-112 -36,-108l-111 -6c54,-122 70,-183 -4,-305z"/>
  <path class="fil1 str4" d="M22465 25871c47,9 93,20 140,28 -4,36 -10,75 -14,111 -2,32 7,60 -4,95 -8,9 -7,22 -24,26l-45 11 -88 10 -46 -92 -6 -116 87 -73z"/>
  <path class="fil1 str4" d="M17536 28758c-203,-106 -318,-172 -530,-205 -323,-690 -547,-529 -357,-838 242,102 219,114 417,313 81,49 605,51 470,730z"/>
  <path class="fil1 str4" d="M22325 26726c26,-258 130,-284 264,-156 -4,41 31,183 -3,261 -272,-22 -51,44 -261,-105z"/>
  <polygon class="fil1 str4" points="3613,19189 3624,19185 3633,19181 3643,19172 3641,19165 3633,19161 3630,19155 3631,19148 3642,19130 3649,19114 3652,19102 3646,19083 3633,19060 3619,19044 3604,19036 3582,19038 3557,19047 3540,19053 3515,19059 3496,19075 3483,19087 3464,19087 3463,19113 3458,19124 3459,19135 3466,19145 3483,19155 3525,19173 3571,19185 3591,19189 "/>
 </g>
</svg>